%TF.GenerationSoftware,KiCad,Pcbnew,9.0.3*%
%TF.CreationDate,2025-07-28T16:08:30-05:00*%
%TF.ProjectId,eesa-solder,65657361-2d73-46f6-9c64-65722e6b6963,rev?*%
%TF.SameCoordinates,Original*%
%TF.FileFunction,Legend,Top*%
%TF.FilePolarity,Positive*%
%FSLAX46Y46*%
G04 Gerber Fmt 4.6, Leading zero omitted, Abs format (unit mm)*
G04 Created by KiCad (PCBNEW 9.0.3) date 2025-07-28 16:08:30*
%MOMM*%
%LPD*%
G01*
G04 APERTURE LIST*
%ADD10C,0.100000*%
%ADD11C,0.150000*%
%ADD12C,0.300000*%
%ADD13C,0.400000*%
%ADD14C,0.120000*%
G04 APERTURE END LIST*
D10*
D11*
X177002200Y-166007200D02*
X285002200Y-166007200D01*
X285002200Y-198007200D01*
X177002200Y-198007200D01*
X177002200Y-166007200D01*
D10*
D11*
X10000000Y-10000000D02*
X287002200Y-10000000D01*
X287002200Y-200007200D01*
X10000000Y-200007200D01*
X10000000Y-10000000D01*
D10*
D11*
X12000000Y-12000000D02*
X285002200Y-12000000D01*
X285002200Y-198007200D01*
X12000000Y-198007200D01*
X12000000Y-12000000D01*
D10*
D11*
X60000000Y-12000000D02*
X60000000Y-10000000D01*
D10*
D11*
X110000000Y-12000000D02*
X110000000Y-10000000D01*
D10*
D11*
X160000000Y-12000000D02*
X160000000Y-10000000D01*
D10*
D11*
X210000000Y-12000000D02*
X210000000Y-10000000D01*
D10*
D11*
X260000000Y-12000000D02*
X260000000Y-10000000D01*
D10*
D11*
X36089160Y-11593604D02*
X35346303Y-11593604D01*
X35717731Y-11593604D02*
X35717731Y-10293604D01*
X35717731Y-10293604D02*
X35593922Y-10479319D01*
X35593922Y-10479319D02*
X35470112Y-10603128D01*
X35470112Y-10603128D02*
X35346303Y-10665033D01*
D10*
D11*
X85346303Y-10417414D02*
X85408207Y-10355509D01*
X85408207Y-10355509D02*
X85532017Y-10293604D01*
X85532017Y-10293604D02*
X85841541Y-10293604D01*
X85841541Y-10293604D02*
X85965350Y-10355509D01*
X85965350Y-10355509D02*
X86027255Y-10417414D01*
X86027255Y-10417414D02*
X86089160Y-10541223D01*
X86089160Y-10541223D02*
X86089160Y-10665033D01*
X86089160Y-10665033D02*
X86027255Y-10850747D01*
X86027255Y-10850747D02*
X85284398Y-11593604D01*
X85284398Y-11593604D02*
X86089160Y-11593604D01*
D10*
D11*
X135284398Y-10293604D02*
X136089160Y-10293604D01*
X136089160Y-10293604D02*
X135655826Y-10788842D01*
X135655826Y-10788842D02*
X135841541Y-10788842D01*
X135841541Y-10788842D02*
X135965350Y-10850747D01*
X135965350Y-10850747D02*
X136027255Y-10912652D01*
X136027255Y-10912652D02*
X136089160Y-11036461D01*
X136089160Y-11036461D02*
X136089160Y-11345985D01*
X136089160Y-11345985D02*
X136027255Y-11469795D01*
X136027255Y-11469795D02*
X135965350Y-11531700D01*
X135965350Y-11531700D02*
X135841541Y-11593604D01*
X135841541Y-11593604D02*
X135470112Y-11593604D01*
X135470112Y-11593604D02*
X135346303Y-11531700D01*
X135346303Y-11531700D02*
X135284398Y-11469795D01*
D10*
D11*
X185965350Y-10726938D02*
X185965350Y-11593604D01*
X185655826Y-10231700D02*
X185346303Y-11160271D01*
X185346303Y-11160271D02*
X186151064Y-11160271D01*
D10*
D11*
X236027255Y-10293604D02*
X235408207Y-10293604D01*
X235408207Y-10293604D02*
X235346303Y-10912652D01*
X235346303Y-10912652D02*
X235408207Y-10850747D01*
X235408207Y-10850747D02*
X235532017Y-10788842D01*
X235532017Y-10788842D02*
X235841541Y-10788842D01*
X235841541Y-10788842D02*
X235965350Y-10850747D01*
X235965350Y-10850747D02*
X236027255Y-10912652D01*
X236027255Y-10912652D02*
X236089160Y-11036461D01*
X236089160Y-11036461D02*
X236089160Y-11345985D01*
X236089160Y-11345985D02*
X236027255Y-11469795D01*
X236027255Y-11469795D02*
X235965350Y-11531700D01*
X235965350Y-11531700D02*
X235841541Y-11593604D01*
X235841541Y-11593604D02*
X235532017Y-11593604D01*
X235532017Y-11593604D02*
X235408207Y-11531700D01*
X235408207Y-11531700D02*
X235346303Y-11469795D01*
D10*
D11*
X285965350Y-10293604D02*
X285717731Y-10293604D01*
X285717731Y-10293604D02*
X285593922Y-10355509D01*
X285593922Y-10355509D02*
X285532017Y-10417414D01*
X285532017Y-10417414D02*
X285408207Y-10603128D01*
X285408207Y-10603128D02*
X285346303Y-10850747D01*
X285346303Y-10850747D02*
X285346303Y-11345985D01*
X285346303Y-11345985D02*
X285408207Y-11469795D01*
X285408207Y-11469795D02*
X285470112Y-11531700D01*
X285470112Y-11531700D02*
X285593922Y-11593604D01*
X285593922Y-11593604D02*
X285841541Y-11593604D01*
X285841541Y-11593604D02*
X285965350Y-11531700D01*
X285965350Y-11531700D02*
X286027255Y-11469795D01*
X286027255Y-11469795D02*
X286089160Y-11345985D01*
X286089160Y-11345985D02*
X286089160Y-11036461D01*
X286089160Y-11036461D02*
X286027255Y-10912652D01*
X286027255Y-10912652D02*
X285965350Y-10850747D01*
X285965350Y-10850747D02*
X285841541Y-10788842D01*
X285841541Y-10788842D02*
X285593922Y-10788842D01*
X285593922Y-10788842D02*
X285470112Y-10850747D01*
X285470112Y-10850747D02*
X285408207Y-10912652D01*
X285408207Y-10912652D02*
X285346303Y-11036461D01*
D10*
D11*
X60000000Y-198007200D02*
X60000000Y-200007200D01*
D10*
D11*
X110000000Y-198007200D02*
X110000000Y-200007200D01*
D10*
D11*
X160000000Y-198007200D02*
X160000000Y-200007200D01*
D10*
D11*
X210000000Y-198007200D02*
X210000000Y-200007200D01*
D10*
D11*
X260000000Y-198007200D02*
X260000000Y-200007200D01*
D10*
D11*
X36089160Y-199600804D02*
X35346303Y-199600804D01*
X35717731Y-199600804D02*
X35717731Y-198300804D01*
X35717731Y-198300804D02*
X35593922Y-198486519D01*
X35593922Y-198486519D02*
X35470112Y-198610328D01*
X35470112Y-198610328D02*
X35346303Y-198672233D01*
D10*
D11*
X85346303Y-198424614D02*
X85408207Y-198362709D01*
X85408207Y-198362709D02*
X85532017Y-198300804D01*
X85532017Y-198300804D02*
X85841541Y-198300804D01*
X85841541Y-198300804D02*
X85965350Y-198362709D01*
X85965350Y-198362709D02*
X86027255Y-198424614D01*
X86027255Y-198424614D02*
X86089160Y-198548423D01*
X86089160Y-198548423D02*
X86089160Y-198672233D01*
X86089160Y-198672233D02*
X86027255Y-198857947D01*
X86027255Y-198857947D02*
X85284398Y-199600804D01*
X85284398Y-199600804D02*
X86089160Y-199600804D01*
D10*
D11*
X135284398Y-198300804D02*
X136089160Y-198300804D01*
X136089160Y-198300804D02*
X135655826Y-198796042D01*
X135655826Y-198796042D02*
X135841541Y-198796042D01*
X135841541Y-198796042D02*
X135965350Y-198857947D01*
X135965350Y-198857947D02*
X136027255Y-198919852D01*
X136027255Y-198919852D02*
X136089160Y-199043661D01*
X136089160Y-199043661D02*
X136089160Y-199353185D01*
X136089160Y-199353185D02*
X136027255Y-199476995D01*
X136027255Y-199476995D02*
X135965350Y-199538900D01*
X135965350Y-199538900D02*
X135841541Y-199600804D01*
X135841541Y-199600804D02*
X135470112Y-199600804D01*
X135470112Y-199600804D02*
X135346303Y-199538900D01*
X135346303Y-199538900D02*
X135284398Y-199476995D01*
D10*
D11*
X185965350Y-198734138D02*
X185965350Y-199600804D01*
X185655826Y-198238900D02*
X185346303Y-199167471D01*
X185346303Y-199167471D02*
X186151064Y-199167471D01*
D10*
D11*
X236027255Y-198300804D02*
X235408207Y-198300804D01*
X235408207Y-198300804D02*
X235346303Y-198919852D01*
X235346303Y-198919852D02*
X235408207Y-198857947D01*
X235408207Y-198857947D02*
X235532017Y-198796042D01*
X235532017Y-198796042D02*
X235841541Y-198796042D01*
X235841541Y-198796042D02*
X235965350Y-198857947D01*
X235965350Y-198857947D02*
X236027255Y-198919852D01*
X236027255Y-198919852D02*
X236089160Y-199043661D01*
X236089160Y-199043661D02*
X236089160Y-199353185D01*
X236089160Y-199353185D02*
X236027255Y-199476995D01*
X236027255Y-199476995D02*
X235965350Y-199538900D01*
X235965350Y-199538900D02*
X235841541Y-199600804D01*
X235841541Y-199600804D02*
X235532017Y-199600804D01*
X235532017Y-199600804D02*
X235408207Y-199538900D01*
X235408207Y-199538900D02*
X235346303Y-199476995D01*
D10*
D11*
X285965350Y-198300804D02*
X285717731Y-198300804D01*
X285717731Y-198300804D02*
X285593922Y-198362709D01*
X285593922Y-198362709D02*
X285532017Y-198424614D01*
X285532017Y-198424614D02*
X285408207Y-198610328D01*
X285408207Y-198610328D02*
X285346303Y-198857947D01*
X285346303Y-198857947D02*
X285346303Y-199353185D01*
X285346303Y-199353185D02*
X285408207Y-199476995D01*
X285408207Y-199476995D02*
X285470112Y-199538900D01*
X285470112Y-199538900D02*
X285593922Y-199600804D01*
X285593922Y-199600804D02*
X285841541Y-199600804D01*
X285841541Y-199600804D02*
X285965350Y-199538900D01*
X285965350Y-199538900D02*
X286027255Y-199476995D01*
X286027255Y-199476995D02*
X286089160Y-199353185D01*
X286089160Y-199353185D02*
X286089160Y-199043661D01*
X286089160Y-199043661D02*
X286027255Y-198919852D01*
X286027255Y-198919852D02*
X285965350Y-198857947D01*
X285965350Y-198857947D02*
X285841541Y-198796042D01*
X285841541Y-198796042D02*
X285593922Y-198796042D01*
X285593922Y-198796042D02*
X285470112Y-198857947D01*
X285470112Y-198857947D02*
X285408207Y-198919852D01*
X285408207Y-198919852D02*
X285346303Y-199043661D01*
D10*
D11*
X10000000Y-60000000D02*
X12000000Y-60000000D01*
D10*
D11*
X10000000Y-110000000D02*
X12000000Y-110000000D01*
D10*
D11*
X10000000Y-160000000D02*
X12000000Y-160000000D01*
D10*
D11*
X10690476Y-35222176D02*
X11309523Y-35222176D01*
X10566666Y-35593604D02*
X10999999Y-34293604D01*
X10999999Y-34293604D02*
X11433333Y-35593604D01*
D10*
D11*
X11092857Y-84912652D02*
X11278571Y-84974557D01*
X11278571Y-84974557D02*
X11340476Y-85036461D01*
X11340476Y-85036461D02*
X11402380Y-85160271D01*
X11402380Y-85160271D02*
X11402380Y-85345985D01*
X11402380Y-85345985D02*
X11340476Y-85469795D01*
X11340476Y-85469795D02*
X11278571Y-85531700D01*
X11278571Y-85531700D02*
X11154761Y-85593604D01*
X11154761Y-85593604D02*
X10659523Y-85593604D01*
X10659523Y-85593604D02*
X10659523Y-84293604D01*
X10659523Y-84293604D02*
X11092857Y-84293604D01*
X11092857Y-84293604D02*
X11216666Y-84355509D01*
X11216666Y-84355509D02*
X11278571Y-84417414D01*
X11278571Y-84417414D02*
X11340476Y-84541223D01*
X11340476Y-84541223D02*
X11340476Y-84665033D01*
X11340476Y-84665033D02*
X11278571Y-84788842D01*
X11278571Y-84788842D02*
X11216666Y-84850747D01*
X11216666Y-84850747D02*
X11092857Y-84912652D01*
X11092857Y-84912652D02*
X10659523Y-84912652D01*
D10*
D11*
X11402380Y-135469795D02*
X11340476Y-135531700D01*
X11340476Y-135531700D02*
X11154761Y-135593604D01*
X11154761Y-135593604D02*
X11030952Y-135593604D01*
X11030952Y-135593604D02*
X10845238Y-135531700D01*
X10845238Y-135531700D02*
X10721428Y-135407890D01*
X10721428Y-135407890D02*
X10659523Y-135284080D01*
X10659523Y-135284080D02*
X10597619Y-135036461D01*
X10597619Y-135036461D02*
X10597619Y-134850747D01*
X10597619Y-134850747D02*
X10659523Y-134603128D01*
X10659523Y-134603128D02*
X10721428Y-134479319D01*
X10721428Y-134479319D02*
X10845238Y-134355509D01*
X10845238Y-134355509D02*
X11030952Y-134293604D01*
X11030952Y-134293604D02*
X11154761Y-134293604D01*
X11154761Y-134293604D02*
X11340476Y-134355509D01*
X11340476Y-134355509D02*
X11402380Y-134417414D01*
D10*
D11*
X10659523Y-185593604D02*
X10659523Y-184293604D01*
X10659523Y-184293604D02*
X10969047Y-184293604D01*
X10969047Y-184293604D02*
X11154761Y-184355509D01*
X11154761Y-184355509D02*
X11278571Y-184479319D01*
X11278571Y-184479319D02*
X11340476Y-184603128D01*
X11340476Y-184603128D02*
X11402380Y-184850747D01*
X11402380Y-184850747D02*
X11402380Y-185036461D01*
X11402380Y-185036461D02*
X11340476Y-185284080D01*
X11340476Y-185284080D02*
X11278571Y-185407890D01*
X11278571Y-185407890D02*
X11154761Y-185531700D01*
X11154761Y-185531700D02*
X10969047Y-185593604D01*
X10969047Y-185593604D02*
X10659523Y-185593604D01*
D10*
D11*
X287002200Y-60000000D02*
X285002200Y-60000000D01*
D10*
D11*
X287002200Y-110000000D02*
X285002200Y-110000000D01*
D10*
D11*
X287002200Y-160000000D02*
X285002200Y-160000000D01*
D10*
D11*
X285692676Y-35222176D02*
X286311723Y-35222176D01*
X285568866Y-35593604D02*
X286002199Y-34293604D01*
X286002199Y-34293604D02*
X286435533Y-35593604D01*
D10*
D11*
X286095057Y-84912652D02*
X286280771Y-84974557D01*
X286280771Y-84974557D02*
X286342676Y-85036461D01*
X286342676Y-85036461D02*
X286404580Y-85160271D01*
X286404580Y-85160271D02*
X286404580Y-85345985D01*
X286404580Y-85345985D02*
X286342676Y-85469795D01*
X286342676Y-85469795D02*
X286280771Y-85531700D01*
X286280771Y-85531700D02*
X286156961Y-85593604D01*
X286156961Y-85593604D02*
X285661723Y-85593604D01*
X285661723Y-85593604D02*
X285661723Y-84293604D01*
X285661723Y-84293604D02*
X286095057Y-84293604D01*
X286095057Y-84293604D02*
X286218866Y-84355509D01*
X286218866Y-84355509D02*
X286280771Y-84417414D01*
X286280771Y-84417414D02*
X286342676Y-84541223D01*
X286342676Y-84541223D02*
X286342676Y-84665033D01*
X286342676Y-84665033D02*
X286280771Y-84788842D01*
X286280771Y-84788842D02*
X286218866Y-84850747D01*
X286218866Y-84850747D02*
X286095057Y-84912652D01*
X286095057Y-84912652D02*
X285661723Y-84912652D01*
D10*
D11*
X286404580Y-135469795D02*
X286342676Y-135531700D01*
X286342676Y-135531700D02*
X286156961Y-135593604D01*
X286156961Y-135593604D02*
X286033152Y-135593604D01*
X286033152Y-135593604D02*
X285847438Y-135531700D01*
X285847438Y-135531700D02*
X285723628Y-135407890D01*
X285723628Y-135407890D02*
X285661723Y-135284080D01*
X285661723Y-135284080D02*
X285599819Y-135036461D01*
X285599819Y-135036461D02*
X285599819Y-134850747D01*
X285599819Y-134850747D02*
X285661723Y-134603128D01*
X285661723Y-134603128D02*
X285723628Y-134479319D01*
X285723628Y-134479319D02*
X285847438Y-134355509D01*
X285847438Y-134355509D02*
X286033152Y-134293604D01*
X286033152Y-134293604D02*
X286156961Y-134293604D01*
X286156961Y-134293604D02*
X286342676Y-134355509D01*
X286342676Y-134355509D02*
X286404580Y-134417414D01*
D10*
D11*
X285661723Y-185593604D02*
X285661723Y-184293604D01*
X285661723Y-184293604D02*
X285971247Y-184293604D01*
X285971247Y-184293604D02*
X286156961Y-184355509D01*
X286156961Y-184355509D02*
X286280771Y-184479319D01*
X286280771Y-184479319D02*
X286342676Y-184603128D01*
X286342676Y-184603128D02*
X286404580Y-184850747D01*
X286404580Y-184850747D02*
X286404580Y-185036461D01*
X286404580Y-185036461D02*
X286342676Y-185284080D01*
X286342676Y-185284080D02*
X286280771Y-185407890D01*
X286280771Y-185407890D02*
X286156961Y-185531700D01*
X286156961Y-185531700D02*
X285971247Y-185593604D01*
X285971247Y-185593604D02*
X285661723Y-185593604D01*
D10*
D11*
X200458026Y-193793328D02*
X200458026Y-192293328D01*
X200458026Y-192293328D02*
X200815169Y-192293328D01*
X200815169Y-192293328D02*
X201029455Y-192364757D01*
X201029455Y-192364757D02*
X201172312Y-192507614D01*
X201172312Y-192507614D02*
X201243741Y-192650471D01*
X201243741Y-192650471D02*
X201315169Y-192936185D01*
X201315169Y-192936185D02*
X201315169Y-193150471D01*
X201315169Y-193150471D02*
X201243741Y-193436185D01*
X201243741Y-193436185D02*
X201172312Y-193579042D01*
X201172312Y-193579042D02*
X201029455Y-193721900D01*
X201029455Y-193721900D02*
X200815169Y-193793328D01*
X200815169Y-193793328D02*
X200458026Y-193793328D01*
X202600884Y-193793328D02*
X202600884Y-193007614D01*
X202600884Y-193007614D02*
X202529455Y-192864757D01*
X202529455Y-192864757D02*
X202386598Y-192793328D01*
X202386598Y-192793328D02*
X202100884Y-192793328D01*
X202100884Y-192793328D02*
X201958026Y-192864757D01*
X202600884Y-193721900D02*
X202458026Y-193793328D01*
X202458026Y-193793328D02*
X202100884Y-193793328D01*
X202100884Y-193793328D02*
X201958026Y-193721900D01*
X201958026Y-193721900D02*
X201886598Y-193579042D01*
X201886598Y-193579042D02*
X201886598Y-193436185D01*
X201886598Y-193436185D02*
X201958026Y-193293328D01*
X201958026Y-193293328D02*
X202100884Y-193221900D01*
X202100884Y-193221900D02*
X202458026Y-193221900D01*
X202458026Y-193221900D02*
X202600884Y-193150471D01*
X203100884Y-192793328D02*
X203672312Y-192793328D01*
X203315169Y-192293328D02*
X203315169Y-193579042D01*
X203315169Y-193579042D02*
X203386598Y-193721900D01*
X203386598Y-193721900D02*
X203529455Y-193793328D01*
X203529455Y-193793328D02*
X203672312Y-193793328D01*
X204743741Y-193721900D02*
X204600884Y-193793328D01*
X204600884Y-193793328D02*
X204315170Y-193793328D01*
X204315170Y-193793328D02*
X204172312Y-193721900D01*
X204172312Y-193721900D02*
X204100884Y-193579042D01*
X204100884Y-193579042D02*
X204100884Y-193007614D01*
X204100884Y-193007614D02*
X204172312Y-192864757D01*
X204172312Y-192864757D02*
X204315170Y-192793328D01*
X204315170Y-192793328D02*
X204600884Y-192793328D01*
X204600884Y-192793328D02*
X204743741Y-192864757D01*
X204743741Y-192864757D02*
X204815170Y-193007614D01*
X204815170Y-193007614D02*
X204815170Y-193150471D01*
X204815170Y-193150471D02*
X204100884Y-193293328D01*
X205458026Y-193650471D02*
X205529455Y-193721900D01*
X205529455Y-193721900D02*
X205458026Y-193793328D01*
X205458026Y-193793328D02*
X205386598Y-193721900D01*
X205386598Y-193721900D02*
X205458026Y-193650471D01*
X205458026Y-193650471D02*
X205458026Y-193793328D01*
X205458026Y-192864757D02*
X205529455Y-192936185D01*
X205529455Y-192936185D02*
X205458026Y-193007614D01*
X205458026Y-193007614D02*
X205386598Y-192936185D01*
X205386598Y-192936185D02*
X205458026Y-192864757D01*
X205458026Y-192864757D02*
X205458026Y-193007614D01*
D10*
D11*
X177002200Y-194507200D02*
X285002200Y-194507200D01*
D10*
D11*
X178458026Y-196593328D02*
X178458026Y-195093328D01*
X179315169Y-196593328D02*
X178672312Y-195736185D01*
X179315169Y-195093328D02*
X178458026Y-195950471D01*
X179958026Y-196593328D02*
X179958026Y-195593328D01*
X179958026Y-195093328D02*
X179886598Y-195164757D01*
X179886598Y-195164757D02*
X179958026Y-195236185D01*
X179958026Y-195236185D02*
X180029455Y-195164757D01*
X180029455Y-195164757D02*
X179958026Y-195093328D01*
X179958026Y-195093328D02*
X179958026Y-195236185D01*
X181529455Y-196450471D02*
X181458027Y-196521900D01*
X181458027Y-196521900D02*
X181243741Y-196593328D01*
X181243741Y-196593328D02*
X181100884Y-196593328D01*
X181100884Y-196593328D02*
X180886598Y-196521900D01*
X180886598Y-196521900D02*
X180743741Y-196379042D01*
X180743741Y-196379042D02*
X180672312Y-196236185D01*
X180672312Y-196236185D02*
X180600884Y-195950471D01*
X180600884Y-195950471D02*
X180600884Y-195736185D01*
X180600884Y-195736185D02*
X180672312Y-195450471D01*
X180672312Y-195450471D02*
X180743741Y-195307614D01*
X180743741Y-195307614D02*
X180886598Y-195164757D01*
X180886598Y-195164757D02*
X181100884Y-195093328D01*
X181100884Y-195093328D02*
X181243741Y-195093328D01*
X181243741Y-195093328D02*
X181458027Y-195164757D01*
X181458027Y-195164757D02*
X181529455Y-195236185D01*
X182815170Y-196593328D02*
X182815170Y-195807614D01*
X182815170Y-195807614D02*
X182743741Y-195664757D01*
X182743741Y-195664757D02*
X182600884Y-195593328D01*
X182600884Y-195593328D02*
X182315170Y-195593328D01*
X182315170Y-195593328D02*
X182172312Y-195664757D01*
X182815170Y-196521900D02*
X182672312Y-196593328D01*
X182672312Y-196593328D02*
X182315170Y-196593328D01*
X182315170Y-196593328D02*
X182172312Y-196521900D01*
X182172312Y-196521900D02*
X182100884Y-196379042D01*
X182100884Y-196379042D02*
X182100884Y-196236185D01*
X182100884Y-196236185D02*
X182172312Y-196093328D01*
X182172312Y-196093328D02*
X182315170Y-196021900D01*
X182315170Y-196021900D02*
X182672312Y-196021900D01*
X182672312Y-196021900D02*
X182815170Y-195950471D01*
X184172313Y-196593328D02*
X184172313Y-195093328D01*
X184172313Y-196521900D02*
X184029455Y-196593328D01*
X184029455Y-196593328D02*
X183743741Y-196593328D01*
X183743741Y-196593328D02*
X183600884Y-196521900D01*
X183600884Y-196521900D02*
X183529455Y-196450471D01*
X183529455Y-196450471D02*
X183458027Y-196307614D01*
X183458027Y-196307614D02*
X183458027Y-195879042D01*
X183458027Y-195879042D02*
X183529455Y-195736185D01*
X183529455Y-195736185D02*
X183600884Y-195664757D01*
X183600884Y-195664757D02*
X183743741Y-195593328D01*
X183743741Y-195593328D02*
X184029455Y-195593328D01*
X184029455Y-195593328D02*
X184172313Y-195664757D01*
X186029455Y-195807614D02*
X186529455Y-195807614D01*
X186743741Y-196593328D02*
X186029455Y-196593328D01*
X186029455Y-196593328D02*
X186029455Y-195093328D01*
X186029455Y-195093328D02*
X186743741Y-195093328D01*
X187386598Y-196450471D02*
X187458027Y-196521900D01*
X187458027Y-196521900D02*
X187386598Y-196593328D01*
X187386598Y-196593328D02*
X187315170Y-196521900D01*
X187315170Y-196521900D02*
X187386598Y-196450471D01*
X187386598Y-196450471D02*
X187386598Y-196593328D01*
X188100884Y-196593328D02*
X188100884Y-195093328D01*
X188100884Y-195093328D02*
X188458027Y-195093328D01*
X188458027Y-195093328D02*
X188672313Y-195164757D01*
X188672313Y-195164757D02*
X188815170Y-195307614D01*
X188815170Y-195307614D02*
X188886599Y-195450471D01*
X188886599Y-195450471D02*
X188958027Y-195736185D01*
X188958027Y-195736185D02*
X188958027Y-195950471D01*
X188958027Y-195950471D02*
X188886599Y-196236185D01*
X188886599Y-196236185D02*
X188815170Y-196379042D01*
X188815170Y-196379042D02*
X188672313Y-196521900D01*
X188672313Y-196521900D02*
X188458027Y-196593328D01*
X188458027Y-196593328D02*
X188100884Y-196593328D01*
X189600884Y-196450471D02*
X189672313Y-196521900D01*
X189672313Y-196521900D02*
X189600884Y-196593328D01*
X189600884Y-196593328D02*
X189529456Y-196521900D01*
X189529456Y-196521900D02*
X189600884Y-196450471D01*
X189600884Y-196450471D02*
X189600884Y-196593328D01*
X190243742Y-196164757D02*
X190958028Y-196164757D01*
X190100885Y-196593328D02*
X190600885Y-195093328D01*
X190600885Y-195093328D02*
X191100885Y-196593328D01*
X191600884Y-196450471D02*
X191672313Y-196521900D01*
X191672313Y-196521900D02*
X191600884Y-196593328D01*
X191600884Y-196593328D02*
X191529456Y-196521900D01*
X191529456Y-196521900D02*
X191600884Y-196450471D01*
X191600884Y-196450471D02*
X191600884Y-196593328D01*
X193529456Y-196593328D02*
X193815170Y-196593328D01*
X193815170Y-196593328D02*
X193958027Y-196521900D01*
X193958027Y-196521900D02*
X194029456Y-196450471D01*
X194029456Y-196450471D02*
X194172313Y-196236185D01*
X194172313Y-196236185D02*
X194243742Y-195950471D01*
X194243742Y-195950471D02*
X194243742Y-195379042D01*
X194243742Y-195379042D02*
X194172313Y-195236185D01*
X194172313Y-195236185D02*
X194100885Y-195164757D01*
X194100885Y-195164757D02*
X193958027Y-195093328D01*
X193958027Y-195093328D02*
X193672313Y-195093328D01*
X193672313Y-195093328D02*
X193529456Y-195164757D01*
X193529456Y-195164757D02*
X193458027Y-195236185D01*
X193458027Y-195236185D02*
X193386599Y-195379042D01*
X193386599Y-195379042D02*
X193386599Y-195736185D01*
X193386599Y-195736185D02*
X193458027Y-195879042D01*
X193458027Y-195879042D02*
X193529456Y-195950471D01*
X193529456Y-195950471D02*
X193672313Y-196021900D01*
X193672313Y-196021900D02*
X193958027Y-196021900D01*
X193958027Y-196021900D02*
X194100885Y-195950471D01*
X194100885Y-195950471D02*
X194172313Y-195879042D01*
X194172313Y-195879042D02*
X194243742Y-195736185D01*
X194886598Y-196450471D02*
X194958027Y-196521900D01*
X194958027Y-196521900D02*
X194886598Y-196593328D01*
X194886598Y-196593328D02*
X194815170Y-196521900D01*
X194815170Y-196521900D02*
X194886598Y-196450471D01*
X194886598Y-196450471D02*
X194886598Y-196593328D01*
X195886599Y-195093328D02*
X196029456Y-195093328D01*
X196029456Y-195093328D02*
X196172313Y-195164757D01*
X196172313Y-195164757D02*
X196243742Y-195236185D01*
X196243742Y-195236185D02*
X196315170Y-195379042D01*
X196315170Y-195379042D02*
X196386599Y-195664757D01*
X196386599Y-195664757D02*
X196386599Y-196021900D01*
X196386599Y-196021900D02*
X196315170Y-196307614D01*
X196315170Y-196307614D02*
X196243742Y-196450471D01*
X196243742Y-196450471D02*
X196172313Y-196521900D01*
X196172313Y-196521900D02*
X196029456Y-196593328D01*
X196029456Y-196593328D02*
X195886599Y-196593328D01*
X195886599Y-196593328D02*
X195743742Y-196521900D01*
X195743742Y-196521900D02*
X195672313Y-196450471D01*
X195672313Y-196450471D02*
X195600884Y-196307614D01*
X195600884Y-196307614D02*
X195529456Y-196021900D01*
X195529456Y-196021900D02*
X195529456Y-195664757D01*
X195529456Y-195664757D02*
X195600884Y-195379042D01*
X195600884Y-195379042D02*
X195672313Y-195236185D01*
X195672313Y-195236185D02*
X195743742Y-195164757D01*
X195743742Y-195164757D02*
X195886599Y-195093328D01*
X197029455Y-196450471D02*
X197100884Y-196521900D01*
X197100884Y-196521900D02*
X197029455Y-196593328D01*
X197029455Y-196593328D02*
X196958027Y-196521900D01*
X196958027Y-196521900D02*
X197029455Y-196450471D01*
X197029455Y-196450471D02*
X197029455Y-196593328D01*
X197600884Y-195093328D02*
X198529456Y-195093328D01*
X198529456Y-195093328D02*
X198029456Y-195664757D01*
X198029456Y-195664757D02*
X198243741Y-195664757D01*
X198243741Y-195664757D02*
X198386599Y-195736185D01*
X198386599Y-195736185D02*
X198458027Y-195807614D01*
X198458027Y-195807614D02*
X198529456Y-195950471D01*
X198529456Y-195950471D02*
X198529456Y-196307614D01*
X198529456Y-196307614D02*
X198458027Y-196450471D01*
X198458027Y-196450471D02*
X198386599Y-196521900D01*
X198386599Y-196521900D02*
X198243741Y-196593328D01*
X198243741Y-196593328D02*
X197815170Y-196593328D01*
X197815170Y-196593328D02*
X197672313Y-196521900D01*
X197672313Y-196521900D02*
X197600884Y-196450471D01*
D10*
D11*
X177002200Y-191507200D02*
X285002200Y-191507200D01*
D10*
D12*
X264413853Y-193785528D02*
X263913853Y-193071242D01*
X263556710Y-193785528D02*
X263556710Y-192285528D01*
X263556710Y-192285528D02*
X264128139Y-192285528D01*
X264128139Y-192285528D02*
X264270996Y-192356957D01*
X264270996Y-192356957D02*
X264342425Y-192428385D01*
X264342425Y-192428385D02*
X264413853Y-192571242D01*
X264413853Y-192571242D02*
X264413853Y-192785528D01*
X264413853Y-192785528D02*
X264342425Y-192928385D01*
X264342425Y-192928385D02*
X264270996Y-192999814D01*
X264270996Y-192999814D02*
X264128139Y-193071242D01*
X264128139Y-193071242D02*
X263556710Y-193071242D01*
X265628139Y-193714100D02*
X265485282Y-193785528D01*
X265485282Y-193785528D02*
X265199568Y-193785528D01*
X265199568Y-193785528D02*
X265056710Y-193714100D01*
X265056710Y-193714100D02*
X264985282Y-193571242D01*
X264985282Y-193571242D02*
X264985282Y-192999814D01*
X264985282Y-192999814D02*
X265056710Y-192856957D01*
X265056710Y-192856957D02*
X265199568Y-192785528D01*
X265199568Y-192785528D02*
X265485282Y-192785528D01*
X265485282Y-192785528D02*
X265628139Y-192856957D01*
X265628139Y-192856957D02*
X265699568Y-192999814D01*
X265699568Y-192999814D02*
X265699568Y-193142671D01*
X265699568Y-193142671D02*
X264985282Y-193285528D01*
X266199567Y-192785528D02*
X266556710Y-193785528D01*
X266556710Y-193785528D02*
X266913853Y-192785528D01*
X267485281Y-193642671D02*
X267556710Y-193714100D01*
X267556710Y-193714100D02*
X267485281Y-193785528D01*
X267485281Y-193785528D02*
X267413853Y-193714100D01*
X267413853Y-193714100D02*
X267485281Y-193642671D01*
X267485281Y-193642671D02*
X267485281Y-193785528D01*
X267485281Y-192856957D02*
X267556710Y-192928385D01*
X267556710Y-192928385D02*
X267485281Y-192999814D01*
X267485281Y-192999814D02*
X267413853Y-192928385D01*
X267413853Y-192928385D02*
X267485281Y-192856957D01*
X267485281Y-192856957D02*
X267485281Y-192999814D01*
D10*
D11*
X178386598Y-193721900D02*
X178600884Y-193793328D01*
X178600884Y-193793328D02*
X178958026Y-193793328D01*
X178958026Y-193793328D02*
X179100884Y-193721900D01*
X179100884Y-193721900D02*
X179172312Y-193650471D01*
X179172312Y-193650471D02*
X179243741Y-193507614D01*
X179243741Y-193507614D02*
X179243741Y-193364757D01*
X179243741Y-193364757D02*
X179172312Y-193221900D01*
X179172312Y-193221900D02*
X179100884Y-193150471D01*
X179100884Y-193150471D02*
X178958026Y-193079042D01*
X178958026Y-193079042D02*
X178672312Y-193007614D01*
X178672312Y-193007614D02*
X178529455Y-192936185D01*
X178529455Y-192936185D02*
X178458026Y-192864757D01*
X178458026Y-192864757D02*
X178386598Y-192721900D01*
X178386598Y-192721900D02*
X178386598Y-192579042D01*
X178386598Y-192579042D02*
X178458026Y-192436185D01*
X178458026Y-192436185D02*
X178529455Y-192364757D01*
X178529455Y-192364757D02*
X178672312Y-192293328D01*
X178672312Y-192293328D02*
X179029455Y-192293328D01*
X179029455Y-192293328D02*
X179243741Y-192364757D01*
X179886597Y-193793328D02*
X179886597Y-192793328D01*
X179886597Y-192293328D02*
X179815169Y-192364757D01*
X179815169Y-192364757D02*
X179886597Y-192436185D01*
X179886597Y-192436185D02*
X179958026Y-192364757D01*
X179958026Y-192364757D02*
X179886597Y-192293328D01*
X179886597Y-192293328D02*
X179886597Y-192436185D01*
X180458026Y-192793328D02*
X181243741Y-192793328D01*
X181243741Y-192793328D02*
X180458026Y-193793328D01*
X180458026Y-193793328D02*
X181243741Y-193793328D01*
X182386598Y-193721900D02*
X182243741Y-193793328D01*
X182243741Y-193793328D02*
X181958027Y-193793328D01*
X181958027Y-193793328D02*
X181815169Y-193721900D01*
X181815169Y-193721900D02*
X181743741Y-193579042D01*
X181743741Y-193579042D02*
X181743741Y-193007614D01*
X181743741Y-193007614D02*
X181815169Y-192864757D01*
X181815169Y-192864757D02*
X181958027Y-192793328D01*
X181958027Y-192793328D02*
X182243741Y-192793328D01*
X182243741Y-192793328D02*
X182386598Y-192864757D01*
X182386598Y-192864757D02*
X182458027Y-193007614D01*
X182458027Y-193007614D02*
X182458027Y-193150471D01*
X182458027Y-193150471D02*
X181743741Y-193293328D01*
X183100883Y-193650471D02*
X183172312Y-193721900D01*
X183172312Y-193721900D02*
X183100883Y-193793328D01*
X183100883Y-193793328D02*
X183029455Y-193721900D01*
X183029455Y-193721900D02*
X183100883Y-193650471D01*
X183100883Y-193650471D02*
X183100883Y-193793328D01*
X183100883Y-192864757D02*
X183172312Y-192936185D01*
X183172312Y-192936185D02*
X183100883Y-193007614D01*
X183100883Y-193007614D02*
X183029455Y-192936185D01*
X183029455Y-192936185D02*
X183100883Y-192864757D01*
X183100883Y-192864757D02*
X183100883Y-193007614D01*
X184886598Y-193364757D02*
X185600884Y-193364757D01*
X184743741Y-193793328D02*
X185243741Y-192293328D01*
X185243741Y-192293328D02*
X185743741Y-193793328D01*
X186886598Y-192793328D02*
X186886598Y-193793328D01*
X186529455Y-192221900D02*
X186172312Y-193293328D01*
X186172312Y-193293328D02*
X187100883Y-193293328D01*
D10*
D11*
X263458026Y-196593328D02*
X263458026Y-195093328D01*
X264815170Y-196593328D02*
X264815170Y-195093328D01*
X264815170Y-196521900D02*
X264672312Y-196593328D01*
X264672312Y-196593328D02*
X264386598Y-196593328D01*
X264386598Y-196593328D02*
X264243741Y-196521900D01*
X264243741Y-196521900D02*
X264172312Y-196450471D01*
X264172312Y-196450471D02*
X264100884Y-196307614D01*
X264100884Y-196307614D02*
X264100884Y-195879042D01*
X264100884Y-195879042D02*
X264172312Y-195736185D01*
X264172312Y-195736185D02*
X264243741Y-195664757D01*
X264243741Y-195664757D02*
X264386598Y-195593328D01*
X264386598Y-195593328D02*
X264672312Y-195593328D01*
X264672312Y-195593328D02*
X264815170Y-195664757D01*
X265529455Y-196450471D02*
X265600884Y-196521900D01*
X265600884Y-196521900D02*
X265529455Y-196593328D01*
X265529455Y-196593328D02*
X265458027Y-196521900D01*
X265458027Y-196521900D02*
X265529455Y-196450471D01*
X265529455Y-196450471D02*
X265529455Y-196593328D01*
X265529455Y-195664757D02*
X265600884Y-195736185D01*
X265600884Y-195736185D02*
X265529455Y-195807614D01*
X265529455Y-195807614D02*
X265458027Y-195736185D01*
X265458027Y-195736185D02*
X265529455Y-195664757D01*
X265529455Y-195664757D02*
X265529455Y-195807614D01*
X268100884Y-195093328D02*
X267386598Y-195093328D01*
X267386598Y-195093328D02*
X267315170Y-195807614D01*
X267315170Y-195807614D02*
X267386598Y-195736185D01*
X267386598Y-195736185D02*
X267529456Y-195664757D01*
X267529456Y-195664757D02*
X267886598Y-195664757D01*
X267886598Y-195664757D02*
X268029456Y-195736185D01*
X268029456Y-195736185D02*
X268100884Y-195807614D01*
X268100884Y-195807614D02*
X268172313Y-195950471D01*
X268172313Y-195950471D02*
X268172313Y-196307614D01*
X268172313Y-196307614D02*
X268100884Y-196450471D01*
X268100884Y-196450471D02*
X268029456Y-196521900D01*
X268029456Y-196521900D02*
X267886598Y-196593328D01*
X267886598Y-196593328D02*
X267529456Y-196593328D01*
X267529456Y-196593328D02*
X267386598Y-196521900D01*
X267386598Y-196521900D02*
X267315170Y-196450471D01*
X269886598Y-195021900D02*
X268600884Y-196950471D01*
X270458027Y-196593328D02*
X270743741Y-196593328D01*
X270743741Y-196593328D02*
X270886598Y-196521900D01*
X270886598Y-196521900D02*
X270958027Y-196450471D01*
X270958027Y-196450471D02*
X271100884Y-196236185D01*
X271100884Y-196236185D02*
X271172313Y-195950471D01*
X271172313Y-195950471D02*
X271172313Y-195379042D01*
X271172313Y-195379042D02*
X271100884Y-195236185D01*
X271100884Y-195236185D02*
X271029456Y-195164757D01*
X271029456Y-195164757D02*
X270886598Y-195093328D01*
X270886598Y-195093328D02*
X270600884Y-195093328D01*
X270600884Y-195093328D02*
X270458027Y-195164757D01*
X270458027Y-195164757D02*
X270386598Y-195236185D01*
X270386598Y-195236185D02*
X270315170Y-195379042D01*
X270315170Y-195379042D02*
X270315170Y-195736185D01*
X270315170Y-195736185D02*
X270386598Y-195879042D01*
X270386598Y-195879042D02*
X270458027Y-195950471D01*
X270458027Y-195950471D02*
X270600884Y-196021900D01*
X270600884Y-196021900D02*
X270886598Y-196021900D01*
X270886598Y-196021900D02*
X271029456Y-195950471D01*
X271029456Y-195950471D02*
X271100884Y-195879042D01*
X271100884Y-195879042D02*
X271172313Y-195736185D01*
D10*
D11*
X177002200Y-187507200D02*
X285002200Y-187507200D01*
D10*
D13*
X178693928Y-188211638D02*
X179836785Y-188211638D01*
X179015357Y-190211638D02*
X179265357Y-188211638D01*
X180253452Y-190211638D02*
X180420119Y-188878304D01*
X180503452Y-188211638D02*
X180396309Y-188306876D01*
X180396309Y-188306876D02*
X180479643Y-188402114D01*
X180479643Y-188402114D02*
X180586786Y-188306876D01*
X180586786Y-188306876D02*
X180503452Y-188211638D01*
X180503452Y-188211638D02*
X180479643Y-188402114D01*
X181086786Y-188878304D02*
X181848690Y-188878304D01*
X181455833Y-188211638D02*
X181241548Y-189925923D01*
X181241548Y-189925923D02*
X181312976Y-190116400D01*
X181312976Y-190116400D02*
X181491548Y-190211638D01*
X181491548Y-190211638D02*
X181682024Y-190211638D01*
X182634405Y-190211638D02*
X182455833Y-190116400D01*
X182455833Y-190116400D02*
X182384405Y-189925923D01*
X182384405Y-189925923D02*
X182598690Y-188211638D01*
X184170119Y-190116400D02*
X183967738Y-190211638D01*
X183967738Y-190211638D02*
X183586785Y-190211638D01*
X183586785Y-190211638D02*
X183408214Y-190116400D01*
X183408214Y-190116400D02*
X183336785Y-189925923D01*
X183336785Y-189925923D02*
X183432024Y-189164019D01*
X183432024Y-189164019D02*
X183551071Y-188973542D01*
X183551071Y-188973542D02*
X183753452Y-188878304D01*
X183753452Y-188878304D02*
X184134404Y-188878304D01*
X184134404Y-188878304D02*
X184312976Y-188973542D01*
X184312976Y-188973542D02*
X184384404Y-189164019D01*
X184384404Y-189164019D02*
X184360595Y-189354495D01*
X184360595Y-189354495D02*
X183384404Y-189544971D01*
X185134405Y-190021161D02*
X185217738Y-190116400D01*
X185217738Y-190116400D02*
X185110595Y-190211638D01*
X185110595Y-190211638D02*
X185027262Y-190116400D01*
X185027262Y-190116400D02*
X185134405Y-190021161D01*
X185134405Y-190021161D02*
X185110595Y-190211638D01*
X185265357Y-188973542D02*
X185348690Y-189068780D01*
X185348690Y-189068780D02*
X185241548Y-189164019D01*
X185241548Y-189164019D02*
X185158214Y-189068780D01*
X185158214Y-189068780D02*
X185265357Y-188973542D01*
X185265357Y-188973542D02*
X185241548Y-189164019D01*
D10*
D11*
X178958026Y-185607614D02*
X178458026Y-185607614D01*
X178458026Y-186393328D02*
X178458026Y-184893328D01*
X178458026Y-184893328D02*
X179172312Y-184893328D01*
X179743740Y-186393328D02*
X179743740Y-185393328D01*
X179743740Y-184893328D02*
X179672312Y-184964757D01*
X179672312Y-184964757D02*
X179743740Y-185036185D01*
X179743740Y-185036185D02*
X179815169Y-184964757D01*
X179815169Y-184964757D02*
X179743740Y-184893328D01*
X179743740Y-184893328D02*
X179743740Y-185036185D01*
X180672312Y-186393328D02*
X180529455Y-186321900D01*
X180529455Y-186321900D02*
X180458026Y-186179042D01*
X180458026Y-186179042D02*
X180458026Y-184893328D01*
X181815169Y-186321900D02*
X181672312Y-186393328D01*
X181672312Y-186393328D02*
X181386598Y-186393328D01*
X181386598Y-186393328D02*
X181243740Y-186321900D01*
X181243740Y-186321900D02*
X181172312Y-186179042D01*
X181172312Y-186179042D02*
X181172312Y-185607614D01*
X181172312Y-185607614D02*
X181243740Y-185464757D01*
X181243740Y-185464757D02*
X181386598Y-185393328D01*
X181386598Y-185393328D02*
X181672312Y-185393328D01*
X181672312Y-185393328D02*
X181815169Y-185464757D01*
X181815169Y-185464757D02*
X181886598Y-185607614D01*
X181886598Y-185607614D02*
X181886598Y-185750471D01*
X181886598Y-185750471D02*
X181172312Y-185893328D01*
X182529454Y-186250471D02*
X182600883Y-186321900D01*
X182600883Y-186321900D02*
X182529454Y-186393328D01*
X182529454Y-186393328D02*
X182458026Y-186321900D01*
X182458026Y-186321900D02*
X182529454Y-186250471D01*
X182529454Y-186250471D02*
X182529454Y-186393328D01*
X182529454Y-185464757D02*
X182600883Y-185536185D01*
X182600883Y-185536185D02*
X182529454Y-185607614D01*
X182529454Y-185607614D02*
X182458026Y-185536185D01*
X182458026Y-185536185D02*
X182529454Y-185464757D01*
X182529454Y-185464757D02*
X182529454Y-185607614D01*
X184958026Y-186321900D02*
X184815169Y-186393328D01*
X184815169Y-186393328D02*
X184529455Y-186393328D01*
X184529455Y-186393328D02*
X184386597Y-186321900D01*
X184386597Y-186321900D02*
X184315169Y-186179042D01*
X184315169Y-186179042D02*
X184315169Y-185607614D01*
X184315169Y-185607614D02*
X184386597Y-185464757D01*
X184386597Y-185464757D02*
X184529455Y-185393328D01*
X184529455Y-185393328D02*
X184815169Y-185393328D01*
X184815169Y-185393328D02*
X184958026Y-185464757D01*
X184958026Y-185464757D02*
X185029455Y-185607614D01*
X185029455Y-185607614D02*
X185029455Y-185750471D01*
X185029455Y-185750471D02*
X184315169Y-185893328D01*
X186243740Y-186321900D02*
X186100883Y-186393328D01*
X186100883Y-186393328D02*
X185815169Y-186393328D01*
X185815169Y-186393328D02*
X185672311Y-186321900D01*
X185672311Y-186321900D02*
X185600883Y-186179042D01*
X185600883Y-186179042D02*
X185600883Y-185607614D01*
X185600883Y-185607614D02*
X185672311Y-185464757D01*
X185672311Y-185464757D02*
X185815169Y-185393328D01*
X185815169Y-185393328D02*
X186100883Y-185393328D01*
X186100883Y-185393328D02*
X186243740Y-185464757D01*
X186243740Y-185464757D02*
X186315169Y-185607614D01*
X186315169Y-185607614D02*
X186315169Y-185750471D01*
X186315169Y-185750471D02*
X185600883Y-185893328D01*
X186886597Y-186321900D02*
X187029454Y-186393328D01*
X187029454Y-186393328D02*
X187315168Y-186393328D01*
X187315168Y-186393328D02*
X187458025Y-186321900D01*
X187458025Y-186321900D02*
X187529454Y-186179042D01*
X187529454Y-186179042D02*
X187529454Y-186107614D01*
X187529454Y-186107614D02*
X187458025Y-185964757D01*
X187458025Y-185964757D02*
X187315168Y-185893328D01*
X187315168Y-185893328D02*
X187100883Y-185893328D01*
X187100883Y-185893328D02*
X186958025Y-185821900D01*
X186958025Y-185821900D02*
X186886597Y-185679042D01*
X186886597Y-185679042D02*
X186886597Y-185607614D01*
X186886597Y-185607614D02*
X186958025Y-185464757D01*
X186958025Y-185464757D02*
X187100883Y-185393328D01*
X187100883Y-185393328D02*
X187315168Y-185393328D01*
X187315168Y-185393328D02*
X187458025Y-185464757D01*
X188815169Y-186393328D02*
X188815169Y-185607614D01*
X188815169Y-185607614D02*
X188743740Y-185464757D01*
X188743740Y-185464757D02*
X188600883Y-185393328D01*
X188600883Y-185393328D02*
X188315169Y-185393328D01*
X188315169Y-185393328D02*
X188172311Y-185464757D01*
X188815169Y-186321900D02*
X188672311Y-186393328D01*
X188672311Y-186393328D02*
X188315169Y-186393328D01*
X188315169Y-186393328D02*
X188172311Y-186321900D01*
X188172311Y-186321900D02*
X188100883Y-186179042D01*
X188100883Y-186179042D02*
X188100883Y-186036185D01*
X188100883Y-186036185D02*
X188172311Y-185893328D01*
X188172311Y-185893328D02*
X188315169Y-185821900D01*
X188315169Y-185821900D02*
X188672311Y-185821900D01*
X188672311Y-185821900D02*
X188815169Y-185750471D01*
X189529454Y-185821900D02*
X190672312Y-185821900D01*
X191315169Y-186321900D02*
X191458026Y-186393328D01*
X191458026Y-186393328D02*
X191743740Y-186393328D01*
X191743740Y-186393328D02*
X191886597Y-186321900D01*
X191886597Y-186321900D02*
X191958026Y-186179042D01*
X191958026Y-186179042D02*
X191958026Y-186107614D01*
X191958026Y-186107614D02*
X191886597Y-185964757D01*
X191886597Y-185964757D02*
X191743740Y-185893328D01*
X191743740Y-185893328D02*
X191529455Y-185893328D01*
X191529455Y-185893328D02*
X191386597Y-185821900D01*
X191386597Y-185821900D02*
X191315169Y-185679042D01*
X191315169Y-185679042D02*
X191315169Y-185607614D01*
X191315169Y-185607614D02*
X191386597Y-185464757D01*
X191386597Y-185464757D02*
X191529455Y-185393328D01*
X191529455Y-185393328D02*
X191743740Y-185393328D01*
X191743740Y-185393328D02*
X191886597Y-185464757D01*
X192815169Y-186393328D02*
X192672312Y-186321900D01*
X192672312Y-186321900D02*
X192600883Y-186250471D01*
X192600883Y-186250471D02*
X192529455Y-186107614D01*
X192529455Y-186107614D02*
X192529455Y-185679042D01*
X192529455Y-185679042D02*
X192600883Y-185536185D01*
X192600883Y-185536185D02*
X192672312Y-185464757D01*
X192672312Y-185464757D02*
X192815169Y-185393328D01*
X192815169Y-185393328D02*
X193029455Y-185393328D01*
X193029455Y-185393328D02*
X193172312Y-185464757D01*
X193172312Y-185464757D02*
X193243741Y-185536185D01*
X193243741Y-185536185D02*
X193315169Y-185679042D01*
X193315169Y-185679042D02*
X193315169Y-186107614D01*
X193315169Y-186107614D02*
X193243741Y-186250471D01*
X193243741Y-186250471D02*
X193172312Y-186321900D01*
X193172312Y-186321900D02*
X193029455Y-186393328D01*
X193029455Y-186393328D02*
X192815169Y-186393328D01*
X194172312Y-186393328D02*
X194029455Y-186321900D01*
X194029455Y-186321900D02*
X193958026Y-186179042D01*
X193958026Y-186179042D02*
X193958026Y-184893328D01*
X195386598Y-186393328D02*
X195386598Y-184893328D01*
X195386598Y-186321900D02*
X195243740Y-186393328D01*
X195243740Y-186393328D02*
X194958026Y-186393328D01*
X194958026Y-186393328D02*
X194815169Y-186321900D01*
X194815169Y-186321900D02*
X194743740Y-186250471D01*
X194743740Y-186250471D02*
X194672312Y-186107614D01*
X194672312Y-186107614D02*
X194672312Y-185679042D01*
X194672312Y-185679042D02*
X194743740Y-185536185D01*
X194743740Y-185536185D02*
X194815169Y-185464757D01*
X194815169Y-185464757D02*
X194958026Y-185393328D01*
X194958026Y-185393328D02*
X195243740Y-185393328D01*
X195243740Y-185393328D02*
X195386598Y-185464757D01*
X196672312Y-186321900D02*
X196529455Y-186393328D01*
X196529455Y-186393328D02*
X196243741Y-186393328D01*
X196243741Y-186393328D02*
X196100883Y-186321900D01*
X196100883Y-186321900D02*
X196029455Y-186179042D01*
X196029455Y-186179042D02*
X196029455Y-185607614D01*
X196029455Y-185607614D02*
X196100883Y-185464757D01*
X196100883Y-185464757D02*
X196243741Y-185393328D01*
X196243741Y-185393328D02*
X196529455Y-185393328D01*
X196529455Y-185393328D02*
X196672312Y-185464757D01*
X196672312Y-185464757D02*
X196743741Y-185607614D01*
X196743741Y-185607614D02*
X196743741Y-185750471D01*
X196743741Y-185750471D02*
X196029455Y-185893328D01*
X197386597Y-186393328D02*
X197386597Y-185393328D01*
X197386597Y-185679042D02*
X197458026Y-185536185D01*
X197458026Y-185536185D02*
X197529455Y-185464757D01*
X197529455Y-185464757D02*
X197672312Y-185393328D01*
X197672312Y-185393328D02*
X197815169Y-185393328D01*
X198315168Y-186250471D02*
X198386597Y-186321900D01*
X198386597Y-186321900D02*
X198315168Y-186393328D01*
X198315168Y-186393328D02*
X198243740Y-186321900D01*
X198243740Y-186321900D02*
X198315168Y-186250471D01*
X198315168Y-186250471D02*
X198315168Y-186393328D01*
X199029454Y-186393328D02*
X199029454Y-184893328D01*
X199172312Y-185821900D02*
X199600883Y-186393328D01*
X199600883Y-185393328D02*
X199029454Y-185964757D01*
X200243740Y-186393328D02*
X200243740Y-185393328D01*
X200243740Y-184893328D02*
X200172312Y-184964757D01*
X200172312Y-184964757D02*
X200243740Y-185036185D01*
X200243740Y-185036185D02*
X200315169Y-184964757D01*
X200315169Y-184964757D02*
X200243740Y-184893328D01*
X200243740Y-184893328D02*
X200243740Y-185036185D01*
X201600884Y-186321900D02*
X201458026Y-186393328D01*
X201458026Y-186393328D02*
X201172312Y-186393328D01*
X201172312Y-186393328D02*
X201029455Y-186321900D01*
X201029455Y-186321900D02*
X200958026Y-186250471D01*
X200958026Y-186250471D02*
X200886598Y-186107614D01*
X200886598Y-186107614D02*
X200886598Y-185679042D01*
X200886598Y-185679042D02*
X200958026Y-185536185D01*
X200958026Y-185536185D02*
X201029455Y-185464757D01*
X201029455Y-185464757D02*
X201172312Y-185393328D01*
X201172312Y-185393328D02*
X201458026Y-185393328D01*
X201458026Y-185393328D02*
X201600884Y-185464757D01*
X202886598Y-186393328D02*
X202886598Y-185607614D01*
X202886598Y-185607614D02*
X202815169Y-185464757D01*
X202815169Y-185464757D02*
X202672312Y-185393328D01*
X202672312Y-185393328D02*
X202386598Y-185393328D01*
X202386598Y-185393328D02*
X202243740Y-185464757D01*
X202886598Y-186321900D02*
X202743740Y-186393328D01*
X202743740Y-186393328D02*
X202386598Y-186393328D01*
X202386598Y-186393328D02*
X202243740Y-186321900D01*
X202243740Y-186321900D02*
X202172312Y-186179042D01*
X202172312Y-186179042D02*
X202172312Y-186036185D01*
X202172312Y-186036185D02*
X202243740Y-185893328D01*
X202243740Y-185893328D02*
X202386598Y-185821900D01*
X202386598Y-185821900D02*
X202743740Y-185821900D01*
X202743740Y-185821900D02*
X202886598Y-185750471D01*
X204243741Y-186393328D02*
X204243741Y-184893328D01*
X204243741Y-186321900D02*
X204100883Y-186393328D01*
X204100883Y-186393328D02*
X203815169Y-186393328D01*
X203815169Y-186393328D02*
X203672312Y-186321900D01*
X203672312Y-186321900D02*
X203600883Y-186250471D01*
X203600883Y-186250471D02*
X203529455Y-186107614D01*
X203529455Y-186107614D02*
X203529455Y-185679042D01*
X203529455Y-185679042D02*
X203600883Y-185536185D01*
X203600883Y-185536185D02*
X203672312Y-185464757D01*
X203672312Y-185464757D02*
X203815169Y-185393328D01*
X203815169Y-185393328D02*
X204100883Y-185393328D01*
X204100883Y-185393328D02*
X204243741Y-185464757D01*
X204600884Y-186536185D02*
X205743741Y-186536185D01*
X206100883Y-185393328D02*
X206100883Y-186893328D01*
X206100883Y-185464757D02*
X206243741Y-185393328D01*
X206243741Y-185393328D02*
X206529455Y-185393328D01*
X206529455Y-185393328D02*
X206672312Y-185464757D01*
X206672312Y-185464757D02*
X206743741Y-185536185D01*
X206743741Y-185536185D02*
X206815169Y-185679042D01*
X206815169Y-185679042D02*
X206815169Y-186107614D01*
X206815169Y-186107614D02*
X206743741Y-186250471D01*
X206743741Y-186250471D02*
X206672312Y-186321900D01*
X206672312Y-186321900D02*
X206529455Y-186393328D01*
X206529455Y-186393328D02*
X206243741Y-186393328D01*
X206243741Y-186393328D02*
X206100883Y-186321900D01*
X208100884Y-186321900D02*
X207958026Y-186393328D01*
X207958026Y-186393328D02*
X207672312Y-186393328D01*
X207672312Y-186393328D02*
X207529455Y-186321900D01*
X207529455Y-186321900D02*
X207458026Y-186250471D01*
X207458026Y-186250471D02*
X207386598Y-186107614D01*
X207386598Y-186107614D02*
X207386598Y-185679042D01*
X207386598Y-185679042D02*
X207458026Y-185536185D01*
X207458026Y-185536185D02*
X207529455Y-185464757D01*
X207529455Y-185464757D02*
X207672312Y-185393328D01*
X207672312Y-185393328D02*
X207958026Y-185393328D01*
X207958026Y-185393328D02*
X208100884Y-185464757D01*
X208743740Y-186393328D02*
X208743740Y-184893328D01*
X208743740Y-185464757D02*
X208886598Y-185393328D01*
X208886598Y-185393328D02*
X209172312Y-185393328D01*
X209172312Y-185393328D02*
X209315169Y-185464757D01*
X209315169Y-185464757D02*
X209386598Y-185536185D01*
X209386598Y-185536185D02*
X209458026Y-185679042D01*
X209458026Y-185679042D02*
X209458026Y-186107614D01*
X209458026Y-186107614D02*
X209386598Y-186250471D01*
X209386598Y-186250471D02*
X209315169Y-186321900D01*
X209315169Y-186321900D02*
X209172312Y-186393328D01*
X209172312Y-186393328D02*
X208886598Y-186393328D01*
X208886598Y-186393328D02*
X208743740Y-186321900D01*
D10*
D11*
X177002200Y-181507200D02*
X285002200Y-181507200D01*
D10*
D11*
X178386598Y-183621900D02*
X178600884Y-183693328D01*
X178600884Y-183693328D02*
X178958026Y-183693328D01*
X178958026Y-183693328D02*
X179100884Y-183621900D01*
X179100884Y-183621900D02*
X179172312Y-183550471D01*
X179172312Y-183550471D02*
X179243741Y-183407614D01*
X179243741Y-183407614D02*
X179243741Y-183264757D01*
X179243741Y-183264757D02*
X179172312Y-183121900D01*
X179172312Y-183121900D02*
X179100884Y-183050471D01*
X179100884Y-183050471D02*
X178958026Y-182979042D01*
X178958026Y-182979042D02*
X178672312Y-182907614D01*
X178672312Y-182907614D02*
X178529455Y-182836185D01*
X178529455Y-182836185D02*
X178458026Y-182764757D01*
X178458026Y-182764757D02*
X178386598Y-182621900D01*
X178386598Y-182621900D02*
X178386598Y-182479042D01*
X178386598Y-182479042D02*
X178458026Y-182336185D01*
X178458026Y-182336185D02*
X178529455Y-182264757D01*
X178529455Y-182264757D02*
X178672312Y-182193328D01*
X178672312Y-182193328D02*
X179029455Y-182193328D01*
X179029455Y-182193328D02*
X179243741Y-182264757D01*
X179886597Y-183693328D02*
X179886597Y-182193328D01*
X180529455Y-183693328D02*
X180529455Y-182907614D01*
X180529455Y-182907614D02*
X180458026Y-182764757D01*
X180458026Y-182764757D02*
X180315169Y-182693328D01*
X180315169Y-182693328D02*
X180100883Y-182693328D01*
X180100883Y-182693328D02*
X179958026Y-182764757D01*
X179958026Y-182764757D02*
X179886597Y-182836185D01*
X181815169Y-183621900D02*
X181672312Y-183693328D01*
X181672312Y-183693328D02*
X181386598Y-183693328D01*
X181386598Y-183693328D02*
X181243740Y-183621900D01*
X181243740Y-183621900D02*
X181172312Y-183479042D01*
X181172312Y-183479042D02*
X181172312Y-182907614D01*
X181172312Y-182907614D02*
X181243740Y-182764757D01*
X181243740Y-182764757D02*
X181386598Y-182693328D01*
X181386598Y-182693328D02*
X181672312Y-182693328D01*
X181672312Y-182693328D02*
X181815169Y-182764757D01*
X181815169Y-182764757D02*
X181886598Y-182907614D01*
X181886598Y-182907614D02*
X181886598Y-183050471D01*
X181886598Y-183050471D02*
X181172312Y-183193328D01*
X183100883Y-183621900D02*
X182958026Y-183693328D01*
X182958026Y-183693328D02*
X182672312Y-183693328D01*
X182672312Y-183693328D02*
X182529454Y-183621900D01*
X182529454Y-183621900D02*
X182458026Y-183479042D01*
X182458026Y-183479042D02*
X182458026Y-182907614D01*
X182458026Y-182907614D02*
X182529454Y-182764757D01*
X182529454Y-182764757D02*
X182672312Y-182693328D01*
X182672312Y-182693328D02*
X182958026Y-182693328D01*
X182958026Y-182693328D02*
X183100883Y-182764757D01*
X183100883Y-182764757D02*
X183172312Y-182907614D01*
X183172312Y-182907614D02*
X183172312Y-183050471D01*
X183172312Y-183050471D02*
X182458026Y-183193328D01*
X183600883Y-182693328D02*
X184172311Y-182693328D01*
X183815168Y-182193328D02*
X183815168Y-183479042D01*
X183815168Y-183479042D02*
X183886597Y-183621900D01*
X183886597Y-183621900D02*
X184029454Y-183693328D01*
X184029454Y-183693328D02*
X184172311Y-183693328D01*
X184672311Y-183550471D02*
X184743740Y-183621900D01*
X184743740Y-183621900D02*
X184672311Y-183693328D01*
X184672311Y-183693328D02*
X184600883Y-183621900D01*
X184600883Y-183621900D02*
X184672311Y-183550471D01*
X184672311Y-183550471D02*
X184672311Y-183693328D01*
X184672311Y-182764757D02*
X184743740Y-182836185D01*
X184743740Y-182836185D02*
X184672311Y-182907614D01*
X184672311Y-182907614D02*
X184600883Y-182836185D01*
X184600883Y-182836185D02*
X184672311Y-182764757D01*
X184672311Y-182764757D02*
X184672311Y-182907614D01*
D10*
D11*
X197002200Y-191507200D02*
X197002200Y-194507200D01*
D10*
D11*
X261002200Y-191507200D02*
X261002200Y-198007200D01*
D12*
X176228572Y-65960114D02*
X177657144Y-65960114D01*
X175942858Y-66817257D02*
X176942858Y-63817257D01*
X176942858Y-63817257D02*
X177942858Y-66817257D01*
X178514287Y-63817257D02*
X180228573Y-63817257D01*
X179371430Y-66817257D02*
X179371430Y-63817257D01*
X180800001Y-63817257D02*
X182514287Y-63817257D01*
X181657144Y-66817257D02*
X181657144Y-63817257D01*
X183371429Y-65960114D02*
X184800001Y-65960114D01*
X183085715Y-66817257D02*
X184085715Y-63817257D01*
X184085715Y-63817257D02*
X185085715Y-66817257D01*
X187800001Y-66531542D02*
X187657144Y-66674400D01*
X187657144Y-66674400D02*
X187228572Y-66817257D01*
X187228572Y-66817257D02*
X186942858Y-66817257D01*
X186942858Y-66817257D02*
X186514287Y-66674400D01*
X186514287Y-66674400D02*
X186228572Y-66388685D01*
X186228572Y-66388685D02*
X186085715Y-66102971D01*
X186085715Y-66102971D02*
X185942858Y-65531542D01*
X185942858Y-65531542D02*
X185942858Y-65102971D01*
X185942858Y-65102971D02*
X186085715Y-64531542D01*
X186085715Y-64531542D02*
X186228572Y-64245828D01*
X186228572Y-64245828D02*
X186514287Y-63960114D01*
X186514287Y-63960114D02*
X186942858Y-63817257D01*
X186942858Y-63817257D02*
X187228572Y-63817257D01*
X187228572Y-63817257D02*
X187657144Y-63960114D01*
X187657144Y-63960114D02*
X187800001Y-64102971D01*
X189085715Y-66817257D02*
X189085715Y-63817257D01*
X190800001Y-66817257D02*
X189514287Y-65102971D01*
X190800001Y-63817257D02*
X189085715Y-65531542D01*
X194942858Y-63817257D02*
X195514286Y-63817257D01*
X195514286Y-63817257D02*
X195800001Y-63960114D01*
X195800001Y-63960114D02*
X196085715Y-64245828D01*
X196085715Y-64245828D02*
X196228572Y-64817257D01*
X196228572Y-64817257D02*
X196228572Y-65817257D01*
X196228572Y-65817257D02*
X196085715Y-66388685D01*
X196085715Y-66388685D02*
X195800001Y-66674400D01*
X195800001Y-66674400D02*
X195514286Y-66817257D01*
X195514286Y-66817257D02*
X194942858Y-66817257D01*
X194942858Y-66817257D02*
X194657144Y-66674400D01*
X194657144Y-66674400D02*
X194371429Y-66388685D01*
X194371429Y-66388685D02*
X194228572Y-65817257D01*
X194228572Y-65817257D02*
X194228572Y-64817257D01*
X194228572Y-64817257D02*
X194371429Y-64245828D01*
X194371429Y-64245828D02*
X194657144Y-63960114D01*
X194657144Y-63960114D02*
X194942858Y-63817257D01*
X197514286Y-66817257D02*
X197514286Y-63817257D01*
X197514286Y-63817257D02*
X199228572Y-66817257D01*
X199228572Y-66817257D02*
X199228572Y-63817257D01*
X202514286Y-63817257D02*
X204228572Y-63817257D01*
X203371429Y-66817257D02*
X203371429Y-63817257D01*
X205228571Y-66817257D02*
X205228571Y-63817257D01*
X206228571Y-63817257D02*
X207942857Y-63817257D01*
X207085714Y-66817257D02*
X207085714Y-63817257D01*
X208799999Y-65960114D02*
X210228571Y-65960114D01*
X208514285Y-66817257D02*
X209514285Y-63817257D01*
X209514285Y-63817257D02*
X210514285Y-66817257D01*
X211514285Y-66817257D02*
X211514285Y-63817257D01*
X211514285Y-63817257D02*
X213228571Y-66817257D01*
X213228571Y-66817257D02*
X213228571Y-63817257D01*
X178499999Y-116274400D02*
X178928571Y-116417257D01*
X178928571Y-116417257D02*
X179642856Y-116417257D01*
X179642856Y-116417257D02*
X179928571Y-116274400D01*
X179928571Y-116274400D02*
X180071428Y-116131542D01*
X180071428Y-116131542D02*
X180214285Y-115845828D01*
X180214285Y-115845828D02*
X180214285Y-115560114D01*
X180214285Y-115560114D02*
X180071428Y-115274400D01*
X180071428Y-115274400D02*
X179928571Y-115131542D01*
X179928571Y-115131542D02*
X179642856Y-114988685D01*
X179642856Y-114988685D02*
X179071428Y-114845828D01*
X179071428Y-114845828D02*
X178785713Y-114702971D01*
X178785713Y-114702971D02*
X178642856Y-114560114D01*
X178642856Y-114560114D02*
X178499999Y-114274400D01*
X178499999Y-114274400D02*
X178499999Y-113988685D01*
X178499999Y-113988685D02*
X178642856Y-113702971D01*
X178642856Y-113702971D02*
X178785713Y-113560114D01*
X178785713Y-113560114D02*
X179071428Y-113417257D01*
X179071428Y-113417257D02*
X179785713Y-113417257D01*
X179785713Y-113417257D02*
X180214285Y-113560114D01*
X181499999Y-113417257D02*
X181499999Y-115845828D01*
X181499999Y-115845828D02*
X181642856Y-116131542D01*
X181642856Y-116131542D02*
X181785714Y-116274400D01*
X181785714Y-116274400D02*
X182071428Y-116417257D01*
X182071428Y-116417257D02*
X182642856Y-116417257D01*
X182642856Y-116417257D02*
X182928571Y-116274400D01*
X182928571Y-116274400D02*
X183071428Y-116131542D01*
X183071428Y-116131542D02*
X183214285Y-115845828D01*
X183214285Y-115845828D02*
X183214285Y-113417257D01*
X186357142Y-116417257D02*
X185357142Y-114988685D01*
X184642856Y-116417257D02*
X184642856Y-113417257D01*
X184642856Y-113417257D02*
X185785713Y-113417257D01*
X185785713Y-113417257D02*
X186071428Y-113560114D01*
X186071428Y-113560114D02*
X186214285Y-113702971D01*
X186214285Y-113702971D02*
X186357142Y-113988685D01*
X186357142Y-113988685D02*
X186357142Y-114417257D01*
X186357142Y-114417257D02*
X186214285Y-114702971D01*
X186214285Y-114702971D02*
X186071428Y-114845828D01*
X186071428Y-114845828D02*
X185785713Y-114988685D01*
X185785713Y-114988685D02*
X184642856Y-114988685D01*
X187214285Y-113417257D02*
X188214285Y-116417257D01*
X188214285Y-116417257D02*
X189214285Y-113417257D01*
X190214285Y-114845828D02*
X191214285Y-114845828D01*
X191642857Y-116417257D02*
X190214285Y-116417257D01*
X190214285Y-116417257D02*
X190214285Y-113417257D01*
X190214285Y-113417257D02*
X191642857Y-113417257D01*
X193500000Y-114988685D02*
X193500000Y-116417257D01*
X192500000Y-113417257D02*
X193500000Y-114988685D01*
X193500000Y-114988685D02*
X194500000Y-113417257D01*
X199500000Y-116131542D02*
X199357143Y-116274400D01*
X199357143Y-116274400D02*
X198928571Y-116417257D01*
X198928571Y-116417257D02*
X198642857Y-116417257D01*
X198642857Y-116417257D02*
X198214286Y-116274400D01*
X198214286Y-116274400D02*
X197928571Y-115988685D01*
X197928571Y-115988685D02*
X197785714Y-115702971D01*
X197785714Y-115702971D02*
X197642857Y-115131542D01*
X197642857Y-115131542D02*
X197642857Y-114702971D01*
X197642857Y-114702971D02*
X197785714Y-114131542D01*
X197785714Y-114131542D02*
X197928571Y-113845828D01*
X197928571Y-113845828D02*
X198214286Y-113560114D01*
X198214286Y-113560114D02*
X198642857Y-113417257D01*
X198642857Y-113417257D02*
X198928571Y-113417257D01*
X198928571Y-113417257D02*
X199357143Y-113560114D01*
X199357143Y-113560114D02*
X199500000Y-113702971D01*
X201357143Y-113417257D02*
X201928571Y-113417257D01*
X201928571Y-113417257D02*
X202214286Y-113560114D01*
X202214286Y-113560114D02*
X202500000Y-113845828D01*
X202500000Y-113845828D02*
X202642857Y-114417257D01*
X202642857Y-114417257D02*
X202642857Y-115417257D01*
X202642857Y-115417257D02*
X202500000Y-115988685D01*
X202500000Y-115988685D02*
X202214286Y-116274400D01*
X202214286Y-116274400D02*
X201928571Y-116417257D01*
X201928571Y-116417257D02*
X201357143Y-116417257D01*
X201357143Y-116417257D02*
X201071429Y-116274400D01*
X201071429Y-116274400D02*
X200785714Y-115988685D01*
X200785714Y-115988685D02*
X200642857Y-115417257D01*
X200642857Y-115417257D02*
X200642857Y-114417257D01*
X200642857Y-114417257D02*
X200785714Y-113845828D01*
X200785714Y-113845828D02*
X201071429Y-113560114D01*
X201071429Y-113560114D02*
X201357143Y-113417257D01*
X205642857Y-116417257D02*
X204642857Y-114988685D01*
X203928571Y-116417257D02*
X203928571Y-113417257D01*
X203928571Y-113417257D02*
X205071428Y-113417257D01*
X205071428Y-113417257D02*
X205357143Y-113560114D01*
X205357143Y-113560114D02*
X205500000Y-113702971D01*
X205500000Y-113702971D02*
X205642857Y-113988685D01*
X205642857Y-113988685D02*
X205642857Y-114417257D01*
X205642857Y-114417257D02*
X205500000Y-114702971D01*
X205500000Y-114702971D02*
X205357143Y-114845828D01*
X205357143Y-114845828D02*
X205071428Y-114988685D01*
X205071428Y-114988685D02*
X203928571Y-114988685D01*
X206928571Y-116417257D02*
X206928571Y-113417257D01*
X206928571Y-113417257D02*
X208071428Y-113417257D01*
X208071428Y-113417257D02*
X208357143Y-113560114D01*
X208357143Y-113560114D02*
X208500000Y-113702971D01*
X208500000Y-113702971D02*
X208642857Y-113988685D01*
X208642857Y-113988685D02*
X208642857Y-114417257D01*
X208642857Y-114417257D02*
X208500000Y-114702971D01*
X208500000Y-114702971D02*
X208357143Y-114845828D01*
X208357143Y-114845828D02*
X208071428Y-114988685D01*
X208071428Y-114988685D02*
X206928571Y-114988685D01*
X209785714Y-116274400D02*
X210214286Y-116417257D01*
X210214286Y-116417257D02*
X210928571Y-116417257D01*
X210928571Y-116417257D02*
X211214286Y-116274400D01*
X211214286Y-116274400D02*
X211357143Y-116131542D01*
X211357143Y-116131542D02*
X211500000Y-115845828D01*
X211500000Y-115845828D02*
X211500000Y-115560114D01*
X211500000Y-115560114D02*
X211357143Y-115274400D01*
X211357143Y-115274400D02*
X211214286Y-115131542D01*
X211214286Y-115131542D02*
X210928571Y-114988685D01*
X210928571Y-114988685D02*
X210357143Y-114845828D01*
X210357143Y-114845828D02*
X210071428Y-114702971D01*
X210071428Y-114702971D02*
X209928571Y-114560114D01*
X209928571Y-114560114D02*
X209785714Y-114274400D01*
X209785714Y-114274400D02*
X209785714Y-113988685D01*
X209785714Y-113988685D02*
X209928571Y-113702971D01*
X209928571Y-113702971D02*
X210071428Y-113560114D01*
X210071428Y-113560114D02*
X210357143Y-113417257D01*
X210357143Y-113417257D02*
X211071428Y-113417257D01*
X211071428Y-113417257D02*
X211500000Y-113560114D01*
D11*
X203334819Y-101616666D02*
X202858628Y-101949999D01*
X203334819Y-102188094D02*
X202334819Y-102188094D01*
X202334819Y-102188094D02*
X202334819Y-101807142D01*
X202334819Y-101807142D02*
X202382438Y-101711904D01*
X202382438Y-101711904D02*
X202430057Y-101664285D01*
X202430057Y-101664285D02*
X202525295Y-101616666D01*
X202525295Y-101616666D02*
X202668152Y-101616666D01*
X202668152Y-101616666D02*
X202763390Y-101664285D01*
X202763390Y-101664285D02*
X202811009Y-101711904D01*
X202811009Y-101711904D02*
X202858628Y-101807142D01*
X202858628Y-101807142D02*
X202858628Y-102188094D01*
X203334819Y-100664285D02*
X203334819Y-101235713D01*
X203334819Y-100949999D02*
X202334819Y-100949999D01*
X202334819Y-100949999D02*
X202477676Y-101045237D01*
X202477676Y-101045237D02*
X202572914Y-101140475D01*
X202572914Y-101140475D02*
X202620533Y-101235713D01*
X196706905Y-98144819D02*
X196706905Y-97144819D01*
X196706905Y-97144819D02*
X196945000Y-97144819D01*
X196945000Y-97144819D02*
X197087857Y-97192438D01*
X197087857Y-97192438D02*
X197183095Y-97287676D01*
X197183095Y-97287676D02*
X197230714Y-97382914D01*
X197230714Y-97382914D02*
X197278333Y-97573390D01*
X197278333Y-97573390D02*
X197278333Y-97716247D01*
X197278333Y-97716247D02*
X197230714Y-97906723D01*
X197230714Y-97906723D02*
X197183095Y-98001961D01*
X197183095Y-98001961D02*
X197087857Y-98097200D01*
X197087857Y-98097200D02*
X196945000Y-98144819D01*
X196945000Y-98144819D02*
X196706905Y-98144819D01*
X198230714Y-98144819D02*
X197659286Y-98144819D01*
X197945000Y-98144819D02*
X197945000Y-97144819D01*
X197945000Y-97144819D02*
X197849762Y-97287676D01*
X197849762Y-97287676D02*
X197754524Y-97382914D01*
X197754524Y-97382914D02*
X197659286Y-97430533D01*
X188306667Y-99867200D02*
X188449524Y-99914819D01*
X188449524Y-99914819D02*
X188687619Y-99914819D01*
X188687619Y-99914819D02*
X188782857Y-99867200D01*
X188782857Y-99867200D02*
X188830476Y-99819580D01*
X188830476Y-99819580D02*
X188878095Y-99724342D01*
X188878095Y-99724342D02*
X188878095Y-99629104D01*
X188878095Y-99629104D02*
X188830476Y-99533866D01*
X188830476Y-99533866D02*
X188782857Y-99486247D01*
X188782857Y-99486247D02*
X188687619Y-99438628D01*
X188687619Y-99438628D02*
X188497143Y-99391009D01*
X188497143Y-99391009D02*
X188401905Y-99343390D01*
X188401905Y-99343390D02*
X188354286Y-99295771D01*
X188354286Y-99295771D02*
X188306667Y-99200533D01*
X188306667Y-99200533D02*
X188306667Y-99105295D01*
X188306667Y-99105295D02*
X188354286Y-99010057D01*
X188354286Y-99010057D02*
X188401905Y-98962438D01*
X188401905Y-98962438D02*
X188497143Y-98914819D01*
X188497143Y-98914819D02*
X188735238Y-98914819D01*
X188735238Y-98914819D02*
X188878095Y-98962438D01*
X189211429Y-98914819D02*
X189449524Y-99914819D01*
X189449524Y-99914819D02*
X189640000Y-99200533D01*
X189640000Y-99200533D02*
X189830476Y-99914819D01*
X189830476Y-99914819D02*
X190068572Y-98914819D01*
X190973333Y-99914819D02*
X190401905Y-99914819D01*
X190687619Y-99914819D02*
X190687619Y-98914819D01*
X190687619Y-98914819D02*
X190592381Y-99057676D01*
X190592381Y-99057676D02*
X190497143Y-99152914D01*
X190497143Y-99152914D02*
X190401905Y-99200533D01*
X193764285Y-73081009D02*
X193907142Y-73128628D01*
X193907142Y-73128628D02*
X193954761Y-73176247D01*
X193954761Y-73176247D02*
X194002380Y-73271485D01*
X194002380Y-73271485D02*
X194002380Y-73414342D01*
X194002380Y-73414342D02*
X193954761Y-73509580D01*
X193954761Y-73509580D02*
X193907142Y-73557200D01*
X193907142Y-73557200D02*
X193811904Y-73604819D01*
X193811904Y-73604819D02*
X193430952Y-73604819D01*
X193430952Y-73604819D02*
X193430952Y-72604819D01*
X193430952Y-72604819D02*
X193764285Y-72604819D01*
X193764285Y-72604819D02*
X193859523Y-72652438D01*
X193859523Y-72652438D02*
X193907142Y-72700057D01*
X193907142Y-72700057D02*
X193954761Y-72795295D01*
X193954761Y-72795295D02*
X193954761Y-72890533D01*
X193954761Y-72890533D02*
X193907142Y-72985771D01*
X193907142Y-72985771D02*
X193859523Y-73033390D01*
X193859523Y-73033390D02*
X193764285Y-73081009D01*
X193764285Y-73081009D02*
X193430952Y-73081009D01*
X194288095Y-72604819D02*
X194859523Y-72604819D01*
X194573809Y-73604819D02*
X194573809Y-72604819D01*
X195716666Y-73604819D02*
X195145238Y-73604819D01*
X195430952Y-73604819D02*
X195430952Y-72604819D01*
X195430952Y-72604819D02*
X195335714Y-72747676D01*
X195335714Y-72747676D02*
X195240476Y-72842914D01*
X195240476Y-72842914D02*
X195145238Y-72890533D01*
D14*
%TO.C,R1*%
X203880000Y-98180000D02*
X204210000Y-98180000D01*
X203880000Y-104720000D02*
X203880000Y-98180000D01*
X204210000Y-104720000D02*
X203880000Y-104720000D01*
X206290000Y-104720000D02*
X206620000Y-104720000D01*
X206620000Y-98180000D02*
X206290000Y-98180000D01*
X206620000Y-104720000D02*
X206620000Y-98180000D01*
%TO.C,D1*%
X194885000Y-100105000D02*
X194885000Y-103195000D01*
X194885000Y-100105170D02*
G75*
G02*
X200435000Y-101650000I2560000J-1544830D01*
G01*
X200435000Y-101650000D02*
G75*
G02*
X194885000Y-103194830I-2990000J0D01*
G01*
X199945000Y-101650000D02*
G75*
G02*
X194945000Y-101650000I-2500000J0D01*
G01*
X194945000Y-101650000D02*
G75*
G02*
X199945000Y-101650000I2500000J0D01*
G01*
%TO.C,SW1*%
X183240000Y-100190000D02*
X192060000Y-100190000D01*
X183240000Y-100500000D02*
X183240000Y-100190000D01*
X183240000Y-104710000D02*
X183240000Y-104400000D01*
X185150000Y-99490000D02*
X185650000Y-99990000D01*
X185650000Y-99990000D02*
X186150000Y-99490000D01*
X186150000Y-99490000D02*
X185150000Y-99490000D01*
X192060000Y-100190000D02*
X192060000Y-100500000D01*
X192060000Y-104710000D02*
X183240000Y-104710000D01*
X192060000Y-104710000D02*
X192060000Y-104400000D01*
%TO.C,BT1*%
X183770000Y-79190000D02*
X183770000Y-81650000D01*
X183770000Y-87650000D02*
X183770000Y-88280000D01*
X183770000Y-88280000D02*
X185210000Y-92230000D01*
X185850000Y-77110000D02*
X183770000Y-79190000D01*
X189350000Y-77110000D02*
X185850000Y-77110000D01*
X203250000Y-77110000D02*
X199750000Y-77110000D01*
X203250000Y-77110000D02*
X205330000Y-79190000D01*
X205330000Y-79190000D02*
X205330000Y-81650000D01*
X205330000Y-87650000D02*
X205330000Y-88280000D01*
X205330000Y-88280000D02*
X203890000Y-92230000D01*
X188546646Y-93216530D02*
G75*
G02*
X185210000Y-92230000I-1306646J1716531D01*
G01*
X203875243Y-92238169D02*
G75*
G02*
X200550000Y-93200000I-2015243J738169D01*
G01*
%TD*%
M02*
